<svg xmlns="http://www.w3.org/2000/svg" width="22" height="24.955" viewBox="0 0 22 24.955">
  <path id="book-ride" d="M119.882,28.591h14.437V26.276a1.1,1.1,0,0,0-1.095-1.095h-4.187c.228-.338.45-.668.656-.965l.788-1.136h2.744a3.205,3.205,0,0,1,3.2,3.2v2.741a3.3,3.3,0,0,1,1.68,2.869v1.258a3.3,3.3,0,0,1-1.041,2.4v3a1.1,1.1,0,0,1-1.1,1.1H134.5a1.1,1.1,0,0,1-1.1-1.1V36.451H120.8v2.092a1.105,1.105,0,0,1-1.1,1.1h-1.456a1.105,1.105,0,0,1-1.1-1.1v-3a3.3,3.3,0,0,1-1.041-2.4V31.885a3.3,3.3,0,0,1,1.68-2.869V26.276a3.205,3.205,0,0,1,3.2-3.2h4.036v2.1h-4.036a1.1,1.1,0,0,0-1.095,1.095Zm8.393-13.711-4.382,6.113s-.587,1.022.4,1.06a15.234,15.234,0,0,1,1.59.132v4.258c0,.454.53.738,1.04.152s4.107-5.848,4.107-5.848.606-.984-.3-1.041a14.746,14.746,0,0,0-1.722,0V15.079a.393.393,0,0,0-.729-.2Zm-9.746,18.392a5.149,5.149,0,0,0,3.52-.085c1.228-.685-.57-2.564-3.408-2.658-1.126-.037-1.178,2.458-.113,2.743Zm17.142,0a5.149,5.149,0,0,1-3.52-.085c-1.228-.685.57-2.564,3.408-2.658,1.126-.037,1.178,2.458.113,2.743Z" transform="translate(-116.1 -14.689)" fill="#2fb279" fill-rule="evenodd"/>
</svg>
