<svg xmlns="http://www.w3.org/2000/svg" width="22" height="24.955">
    <path d="M3.782 13.902h14.437v-2.315a1.1 1.1 0 0 0-1.095-1.095h-4.187c.228-.338.45-.668.656-.965l.788-1.136h2.744a3.205 3.205 0 0 1 3.2 3.2v2.741a3.3 3.3 0 0 1 1.68 2.869v1.258a3.3 3.3 0 0 1-1.041 2.4v3a1.1 1.1 0 0 1-1.1 1.1H18.4a1.1 1.1 0 0 1-1.1-1.1v-2.097H4.7v2.092a1.105 1.105 0 0 1-1.1 1.1H2.144a1.105 1.105 0 0 1-1.1-1.1v-3a3.3 3.3 0 0 1-1.041-2.4v-1.258a3.3 3.3 0 0 1 1.68-2.869v-2.74a3.205 3.205 0 0 1 3.2-3.2h4.036v2.1H4.883a1.1 1.1 0 0 0-1.095 1.095ZM12.175.191 7.793 6.304s-.587 1.022.4 1.06a15.234 15.234 0 0 1 1.59.132v4.258c0 .454.53.738 1.04.152s4.107-5.848 4.107-5.848.606-.984-.3-1.041a14.746 14.746 0 0 0-1.722 0V.39a.393.393 0 0 0-.729-.2ZM2.429 18.583a5.149 5.149 0 0 0 3.52-.085c1.228-.685-.57-2.564-3.408-2.658-1.126-.037-1.178 2.458-.113 2.743Zm17.142 0a5.149 5.149 0 0 1-3.52-.085c-1.228-.685.57-2.564 3.408-2.658 1.126-.037 1.178 2.458.113 2.743Z" fill="#2fb279" fill-rule="evenodd"/>
</svg>
