<svg xmlns="http://www.w3.org/2000/svg" width="19" height="18.258">
    <path d="M17.604 12.133a2.268 2.268 0 0 1 0 3.2l-1.961 1.961a3.223 3.223 0 0 1-2.281.961h-.32A15.034 15.034 0 0 1 .022 5.235 3.19 3.19 0 0 1 .97 2.62L2.931.659a2.268 2.268 0 0 1 3.2 0l1.667 1.667a2.268 2.268 0 0 1 0 3.2l-2.353 2.32a.654.654 0 0 0-.17.654 8.012 8.012 0 0 0 4.575 4.471.594.594 0 0 0 .6-.17l2.281-2.34a2.268 2.268 0 0 1 3.2 0ZM18.351.942h-7.19a.654.654 0 0 0-.654.654v6.536a.654.654 0 0 0 .405.6.55.55 0 0 0 .248.052.654.654 0 0 0 .464-.19l1.765-1.771h4.961a.654.654 0 0 0 .654-.654V1.596a.654.654 0 0 0-.654-.654Z" fill="#567b6b"/>
</svg>
