<svg xmlns="http://www.w3.org/2000/svg" width="18" height="25.714">
    <path d="M11.461 21.534c2.532-3.617 6.111-9.363 6.111-12.963a8.571 8.571 0 0 0-17.142 0c0 3.6 3.578 9.346 6.111 12.963a3 3 0 0 0 4.922 0Zm-5.722-9.436.741-2.283-1.942-1.411a.857.857 0 0 1 .5-1.55h2.4l.743-2.283a.857.857 0 0 1 1.629 0l.743 2.283h2.4a.857.857 0 0 1 .5 1.55l-1.942 1.411.741 2.283a.857.857 0 0 1-1.319.958L9 11.648l-1.942 1.411a.857.857 0 0 1-1.319-.958Zm12.26 10.613c0 2.784-6.889 3-9 3s-9-.214-9-3c0-1.144 1.157-1.982 3.439-2.491a.858.858 0 0 1 .373 1.674 4.329 4.329 0 0 0-2.057.822c.384.4 2.5 1.281 7.245 1.281s6.861-.878 7.246-1.281a4.341 4.341 0 0 0-2.057-.822.857.857 0 1 1 .373-1.671c2.281.507 3.438 1.345 3.438 2.489Z" fill="#567b6b"/>
</svg>
