<svg xmlns="http://www.w3.org/2000/svg" width="18" height="19.286">
    <path d="M.643 19.286A.643.643 0 0 1 0 18.643v-3.857a.643.643 0 0 1 .643-.643h1.928V11.25a6.428 6.428 0 0 1 12.857 0v2.893h1.929a.643.643 0 0 1 .643.643v3.857a.643.643 0 0 1-.643.643ZM1.286 18h15.428v-2.571H1.286Zm9-8.977a2.572 2.572 0 0 1 1.286 2.227v2.893h2.571V11.25a5.143 5.143 0 0 0-10.286 0v2.893h2.571V11.25a2.571 2.571 0 0 1 3.857-2.227Zm-1.929 1.113a1.286 1.286 0 0 0-.643 1.114v2.893h2.571V11.25a1.286 1.286 0 0 0-1.929-1.114ZM3.1 6.363a.643.643 0 0 1-.469-.256L.816 4.3a.643.643 0 1 1 .91-.91l1.81 1.819a.643.643 0 0 1-.386 1.155Zm11.812-.056Zm-.009 0Zm-.446-.189a.643.643 0 0 1 0-.911l1.81-1.829a.643.643 0 1 1 .91.91l-1.813 1.819a.622.622 0 0 1-.9.011ZM8.545 3.669a.643.643 0 0 1-.188-.455V.643a.643.643 0 1 1 1.286 0v2.571a.643.643 0 0 1-1.1.455Z" fill="#fff"/>
</svg>
