<svg xmlns="http://www.w3.org/2000/svg" width="18" height="18" viewBox="0 0 18 18">
  <path id="location-pin-menu" d="M2.813,17.266a6.962,6.962,0,0,1-1.958-.835A1.634,1.634,0,0,1,0,15.136a1.443,1.443,0,0,1,.55-1.057,4.407,4.407,0,0,1,1.282-.739,16.1,16.1,0,0,1,4.262-.925h0a.409.409,0,1,1,.082.814h0a15.485,15.485,0,0,0-4.038.869,3.732,3.732,0,0,0-1.045.592c-.215.191-.275.336-.275.446,0,.145.118.361.5.616a6.322,6.322,0,0,0,1.724.726,22.8,22.8,0,0,0,5.962.7,22.789,22.789,0,0,0,5.962-.7,6.333,6.333,0,0,0,1.724-.726c.378-.255.5-.471.5-.616,0-.11-.059-.255-.275-.446a3.741,3.741,0,0,0-1.046-.592,15.482,15.482,0,0,0-4.038-.869.409.409,0,1,1,.082-.814,16.107,16.107,0,0,1,4.263.925,4.405,4.405,0,0,1,1.282.738A1.444,1.444,0,0,1,18,15.136a1.635,1.635,0,0,1-.855,1.294,6.961,6.961,0,0,1-1.958.835A23.45,23.45,0,0,1,9,18,23.444,23.444,0,0,1,2.813,17.266Zm5.9-1.431-.818-.818a.409.409,0,0,1-.12-.289V7.933A4.052,4.052,0,0,1,4.909,4.091a4.091,4.091,0,1,1,8.182,0,4.052,4.052,0,0,1-2.864,3.842v6.794a.409.409,0,0,1-.12.289l-.818.818a.409.409,0,0,1-.579,0ZM6.562,3.8a.409.409,0,1,0,.813.1h0A1.636,1.636,0,0,1,8.764,2.471a.409.409,0,0,0-.01-.811h0a.4.4,0,0,0-.107,0h0A2.457,2.457,0,0,0,6.562,3.8ZM9,0H9Z" fill="#0089ff"/>
</svg>
