<svg xmlns="http://www.w3.org/2000/svg" width="20" height="21.538">
    <defs>
        <style>
            .cls-1{fill:#e60000}
        </style>
    </defs>
    <g id="place-delete" transform="translate(-122.5 -35)">
        <path id="Path_304" data-name="Path 304" class="cls-1" d="M122.5 38.846a.769.769 0 0 0 .769.769h1.538v14.616a2.307 2.307 0 0 0 2.308 2.308h10.769a2.307 2.307 0 0 0 2.308-2.308V39.615h1.538a.769.769 0 1 0 0-1.538h-4.615v-.769A2.307 2.307 0 0 0 134.808 35h-4.615a2.307 2.307 0 0 0-2.308 2.308v.769h-4.615a.769.769 0 0 0-.769.769Zm6.923-1.538a.769.769 0 0 1 .769-.769h4.615a.769.769 0 0 1 .769.769v.769h-6.154Zm9.231 2.308v14.615a.769.769 0 0 1-.769.769h-10.77a.769.769 0 0 1-.769-.769V39.615Z"/>
        <path id="Path_305" data-name="Path 305" class="cls-1" d="M333.269 219.231a.769.769 0 0 0 .769-.769v-7.692a.769.769 0 1 0-1.538 0v7.692a.769.769 0 0 0 .769.769Z" transform="translate(-200.769 -167.308)"/>
        <path id="Path_306" data-name="Path 306" class="cls-1" d="M403.269 251.154a.769.769 0 0 0 .769-.769v-4.615a.769.769 0 1 0-1.538 0v4.615a.769.769 0 0 0 .769.769Z" transform="translate(-267.692 -200.769)"/>
        <path id="Path_307" data-name="Path 307" class="cls-1" d="M263.269 251.154a.769.769 0 0 0 .769-.769v-4.615a.769.769 0 1 0-1.538 0v4.615a.769.769 0 0 0 .769.769Z" transform="translate(-133.846 -200.769)"/>
    </g>
</svg>
