<svg xmlns="http://www.w3.org/2000/svg" width="24" height="20.822" viewBox="0 0 24 20.822">
  <defs>
    <style>
      .cls-1 {
        fill: #00c400;
        fill-rule: evenodd;
      }
    </style>
  </defs>
  <path id="place-work" class="cls-1" d="M115.974,70.819H107.4a2.572,2.572,0,0,0-2.571,2.571v9.429a2.572,2.572,0,0,0,2.571,2.571H126.26a2.571,2.571,0,0,0,2.571-2.571V69.514a2.572,2.572,0,0,0-1.815-2.458L119.3,64.683a2.571,2.571,0,0,0-3.327,2.458v3.679ZM114.26,83.676h1.714V72.534H107.4a.857.857,0,0,0-.857.857v9.429a.857.857,0,0,0,.857.857h.857V78.533a.857.857,0,0,1,.857-.857H113.4a.857.857,0,0,1,.857.857Zm-1.714-4.286v4.286h-2.571V79.391Zm5.143,4.286V67.141a.857.857,0,0,1,1.109-.819l7.714,2.374a.857.857,0,0,1,.605.819V82.819a.857.857,0,0,1-.857.857Zm2.571-3.428h4.286a.857.857,0,0,0,0-1.714H120.26a.857.857,0,0,0,0,1.714Zm0-3.429h4.286a.857.857,0,0,0,0-1.714H120.26a.857.857,0,0,0,0,1.714Zm-11.143-.857H113.4a.857.857,0,1,0,0-1.714h-4.286a.857.857,0,1,0,0,1.714Zm11.143-2.571h4.286a.857.857,0,0,0,0-1.714H120.26a.857.857,0,0,0,0,1.714Z" transform="translate(-104.831 -64.569)"/>
</svg>
