<svg xmlns="http://www.w3.org/2000/svg" width="20" height="20.005" viewBox="0 0 20 20.005">
  <defs>
    <style>
      .cls-1 {
        fill: #00c400;
      }
    </style>
  </defs>
  <path id="place-home" class="cls-1" d="M113.075,32.557l-9.091-9.091a.909.909,0,0,0-1.291,0L93.6,32.557a.991.991,0,0,0-.264.645v9.091a.909.909,0,0,0,.909.909h18.182a.909.909,0,0,0,.909-.909V33.2a.991.991,0,0,0-.264-.645Zm-7.009,8.827h-5.455V38.658a2.727,2.727,0,0,1,5.455,0Zm5.455,0h-3.636V38.658a4.545,4.545,0,1,0-9.091,0v2.727H95.157V33.576l8.182-8.182,8.182,8.182Z" transform="translate(-93.338 -23.198)"/>
</svg>
