<svg xmlns="http://www.w3.org/2000/svg" width="22" height="22.153" viewBox="0 0 22 22.153">
  <path id="safety" d="M1.516,22.146h0A1.486,1.486,0,0,1,0,20.681V17.456a1.5,1.5,0,0,1,1.516-1.465L3.95,16a1.572,1.572,0,0,0,1.023-.381l3.919-3.17a2,2,0,0,1,2.4-.33,1.8,1.8,0,0,1,.872,1.538,2.239,2.239,0,0,1-.757,1.535.025.025,0,0,1-.008.015.171.171,0,0,0,.03.147h3a1.575,1.575,0,0,0,1.077-.425l3.3-3.242a1.909,1.909,0,0,1,2.646,0A1.766,1.766,0,0,1,22,12.961a1.8,1.8,0,0,1-.546,1.282l-5.208,5.025a3.1,3.1,0,0,1-1.19.71L8.711,22.007a3.209,3.209,0,0,1-.955.147Zm12.2-11.166h0A27.59,27.59,0,0,1,8.924,5.864c-1.918-2.946.437-8.016,4.8-4.823a.088.088,0,0,0,.1,0c4.823-3.49,6.432,2.736,4.826,4.823a48.142,48.142,0,0,1-4.823,5.115.084.084,0,0,1-.11,0Z" transform="translate(0 0)" fill="#db4e03"/>
</svg>
