<svg xmlns="http://www.w3.org/2000/svg" width="24" height="23.405" viewBox="0 0 24 23.405">
  <path id="schedule-ride" d="M12.4,17.6a5.8,5.8,0,1,1,5.8,5.8A5.8,5.8,0,0,1,12.4,17.6Zm2.731,0a.685.685,0,0,0,.683.683h1.707v2.048a.683.683,0,1,0,1.365,0V18.285h2.048a.683.683,0,0,0,0-1.365H18.88V15.213a.683.683,0,1,0-1.365,0V16.92H15.808A.685.685,0,0,0,15.126,17.6Zm-12.1.351A3.037,3.037,0,0,1,0,14.928V4.563A3.042,3.042,0,0,1,3.05,1.538H4.959V.794a.794.794,0,1,1,1.587,0v.744H12V.794a.794.794,0,0,1,1.587,0v.744h1.934a3.037,3.037,0,0,1,3.025,3.025V9.82c-.273-.025-.521-.05-.794-.05h0A7.445,7.445,0,0,0,10.34,17.16c0,.273.025.521.05.794ZM1.587,4.588V6.125H16.962V4.588a1.445,1.445,0,0,0-1.438-1.463H13.589v.744a.794.794,0,0,1-1.587,0V3.125H6.547v.744a.794.794,0,0,1-1.587,0V3.125H3.05A1.466,1.466,0,0,0,1.587,4.588Z" fill="#2fb279"/>
</svg>
