<svg xmlns="http://www.w3.org/2000/svg" width="16" height="18.116">
    <path d="M12.948 18.116a.814.814 0 0 1-.82-.82v-1.258H3.871V17.3a.814.814 0 0 1-.82.82H1.678a.814.814 0 0 1-.82-.82v-3.97a10.431 10.431 0 0 1 .248-2.308H.82A.814.814 0 0 1 0 10.2v-.475a.814.814 0 0 1 .82-.82h1.049l.668-2.1a2.635 2.635 0 0 1 1.487-1.6 3.9 3.9 0 0 1-.153-1.068 4.138 4.138 0 1 1 8.276 0 4.012 4.012 0 0 1-.153 1.068 2.584 2.584 0 0 1 1.487 1.6l.668 2.1H15.2a.792.792 0 0 1 .8.839v.456a.814.814 0 0 1-.82.82h-.286a11.708 11.708 0 0 1 .248 2.308V17.3a.814.814 0 0 1-.82.82Zm-.381-6.141-1.545.248a.508.508 0 0 0-.42.4l-.114.534a.514.514 0 0 0 .5.61h1.659a.492.492 0 0 0 .5-.5h.019v-.8a.51.51 0 0 0-.5-.5.48.48 0 0 0-.099.009Zm-9.667.516v.782a.492.492 0 0 0 .5.5h1.654a.521.521 0 0 0 .515-.591l-.114-.534a.532.532 0 0 0-.42-.4l-1.545-.253a.48.48 0 0 0-.089-.008.51.51 0 0 0-.501.504ZM4.1 7.3l-.782 2.46a.179.179 0 0 0 .172.229h9.039a.179.179 0 0 0 .172-.229l-.782-2.46a1 1 0 0 0-.668-.629 4.111 4.111 0 0 1-6.484 0A1 1 0 0 0 4.1 7.3Zm.782-3.166a3.127 3.127 0 1 0 3.127-3.123 3.142 3.142 0 0 0-3.127 3.127Zm3.127.5a.489.489 0 0 1-.5-.477V2.365a.5.5 0 1 1 .992 0v1.277h.953a.5.5 0 0 1 .5.5.492.492 0 0 1-.5.5Z"/>
</svg>
