<svg xmlns="http://www.w3.org/2000/svg" width="20" height="20.922">
    <path d="m19.741 13.016-2.021-1.167a7.921 7.921 0 0 0 0-2.778l2.021-1.167a.518.518 0 0 0 .235-.6 10.517 10.517 0 0 0-2.253-3.9.517.517 0 0 0-.641-.1l-2.02 1.166a7.9 7.9 0 0 0-2.4-1.39V.748a.517.517 0 0 0-.407-.506 10.571 10.571 0 0 0-4.5 0 .517.517 0 0 0-.407.506V3.08a7.9 7.9 0 0 0-2.405 1.39l-2.02-1.166a.517.517 0 0 0-.641.1 10.522 10.522 0 0 0-2.252 3.9.518.518 0 0 0 .235.6l2.021 1.167a7.9 7.9 0 0 0 0 2.778L.264 13.016a.517.517 0 0 0-.235.6 10.522 10.522 0 0 0 2.253 3.9.518.518 0 0 0 .641.1l2.02-1.167a7.9 7.9 0 0 0 2.405 1.39v2.333a.517.517 0 0 0 .407.506 10.514 10.514 0 0 0 4.5 0 .517.517 0 0 0 .407-.506v-2.333a7.9 7.9 0 0 0 2.405-1.39l2.02 1.167a.518.518 0 0 0 .641-.1 10.52 10.52 0 0 0 2.252-3.9.517.517 0 0 0-.234-.6ZM10 14.928a4.472 4.472 0 1 1 3.158-1.309A4.469 4.469 0 0 1 10 14.928Z" fill="#567b6b"/>
</svg>
