<svg xmlns="http://www.w3.org/2000/svg" width="20" height="20.922" viewBox="0 0 20 20.922">
  <path id="settings" d="M107.709,18.917l-2.021-1.167a7.921,7.921,0,0,0,0-2.778l2.021-1.167a.518.518,0,0,0,.235-.6,10.517,10.517,0,0,0-2.253-3.9.517.517,0,0,0-.641-.1l-2.02,1.166a7.9,7.9,0,0,0-2.4-1.39V6.649a.517.517,0,0,0-.407-.506,10.571,10.571,0,0,0-4.5,0,.517.517,0,0,0-.407.506V8.981a7.9,7.9,0,0,0-2.405,1.39l-2.02-1.166h0a.517.517,0,0,0-.641.1,10.522,10.522,0,0,0-2.252,3.9.518.518,0,0,0,.235.6l2.021,1.167a7.9,7.9,0,0,0,0,2.778l-2.022,1.167a.517.517,0,0,0-.235.6,10.522,10.522,0,0,0,2.253,3.9.518.518,0,0,0,.641.1l2.02-1.167a7.9,7.9,0,0,0,2.405,1.39v2.333a.517.517,0,0,0,.407.506,10.514,10.514,0,0,0,4.5,0,.517.517,0,0,0,.407-.506V23.74a7.9,7.9,0,0,0,2.405-1.39l2.02,1.167h0a.518.518,0,0,0,.641-.1,10.52,10.52,0,0,0,2.252-3.9.517.517,0,0,0-.234-.6Zm-9.741,1.912a4.472,4.472,0,1,1,3.158-1.309,4.469,4.469,0,0,1-3.158,1.309Z" transform="translate(-87.968 -5.901)" fill="#567b6b"/>
</svg>
